<svg width="178" height="28" viewBox="0 0 178 28" fill="none" xmlns="http://www.w3.org/2000/svg">
<path d="M6.28246 3.45155H6.50047C8.08995 3.47275 9.61546 4.05591 10.785 5.08939V3.51738C10.7911 3.47022 10.8157 3.4486 10.8566 3.4486H12.7809C12.829 3.45352 12.8525 3.47808 12.8525 3.51738V15.7201C12.8556 15.7398 12.8484 15.7594 12.8341 15.7722C12.8198 15.785 12.7993 15.7919 12.7799 15.7899H10.8556C10.8351 15.7928 10.8147 15.786 10.8014 15.7722C10.7881 15.7585 10.7809 15.7388 10.7829 15.7201V14.1481C9.66217 15.167 8.18828 15.7496 6.64581 15.7889H6.10027C4.35309 15.7162 2.71237 14.9597 1.56089 13.6962C0.577853 12.5847 0.0262827 11.1807 0 9.7229V9.54802C0.0030706 7.57711 1.00613 5.72999 2.6878 4.59814C3.73181 3.86519 4.98871 3.46531 6.28246 3.45155ZM2.07061 9.51658V9.72683C2.07536 10.4552 2.28331 11.1691 2.67283 11.7943C3.06235 12.4194 3.61922 12.933 4.28554 13.2816C4.87131 13.6077 5.53287 13.7877 6.20978 13.8052H6.57314C8.86074 13.7296 10.6908 11.9581 10.7492 9.76122V9.48121C10.7154 7.88168 9.72563 6.44526 8.2067 5.78698C7.65355 5.57033 7.06394 5.45214 6.46669 5.43818H6.35615C5.23037 5.45171 4.15413 5.88468 3.35469 6.64566C2.55525 7.40665 2.09415 8.43608 2.07061 9.51658Z" fill="white"/>
<path d="M24.2168 0C24.2649 0.00589505 24.2885 0.0294753 24.2885 0.0687756V15.7201C24.2915 15.7398 24.2844 15.7594 24.2701 15.7722C24.2557 15.785 24.2353 15.7919 24.2158 15.7899H22.2916C22.2711 15.7928 22.2506 15.786 22.2373 15.7722C22.224 15.7585 22.2168 15.7388 22.2189 15.7201V14.1481C21.0969 15.1663 19.6222 15.75 18.0787 15.7869H17.5342C16.6696 15.7506 15.8216 15.5466 15.0415 15.187C14.2613 14.8275 13.5651 14.32 12.9948 13.6952C12.0118 12.5837 11.4602 11.1797 11.4339 9.72192V9.54704C11.437 7.57612 12.439 5.72999 14.1207 4.59814C15.1647 3.86421 16.4216 3.46236 17.7153 3.4486H17.9334C19.5229 3.47022 21.049 4.05285 22.2189 5.08645V0.0687756C22.224 0.0225977 22.2496 0 22.2905 0H24.2168ZM13.5045 9.51658V9.72683C13.5093 10.4552 13.7172 11.1691 14.1067 11.7943C14.4963 12.4194 15.0531 12.933 15.7194 13.2816C16.3052 13.6077 16.9668 13.7877 17.6437 13.8052H18.007C20.2946 13.7306 22.1257 11.9581 22.1831 9.76122V9.48121C22.1493 7.88168 21.1595 6.44526 19.6416 5.78698C19.0884 5.57054 18.4988 5.45236 17.9016 5.43818H17.7921C16.6663 5.45171 15.5901 5.88468 14.7906 6.64566C13.9912 7.40665 13.5311 8.43608 13.5076 9.51658H13.5045Z" fill="white"/>
<path d="M29.137 3.63528H29.4645C30.4196 3.64607 31.3591 3.8688 32.2097 4.28605C33.0602 4.7033 33.7986 5.30375 34.3672 6.04046C35.1656 7.02985 35.6118 8.23932 35.6364 9.49103V9.98229C35.6364 10.4015 35.6002 10.6111 35.5279 10.6111H24.9998V10.6455C25.2228 11.5664 25.757 12.3907 26.519 12.9898C27.281 13.5889 28.2282 13.9292 29.2127 13.9575H29.3939C30.051 13.9493 30.698 13.8012 31.2883 13.5239C31.8785 13.2466 32.3974 12.8471 32.8074 12.3541H34.9875C34.3498 13.726 33.1761 14.8025 31.7193 15.3517C30.97 15.6463 30.1688 15.8001 29.3591 15.8046H29.2874C28.1856 15.8063 27.1025 15.5304 26.1466 15.0043C25.1907 14.4783 24.3954 13.7206 23.8402 12.807C23.2803 11.8608 22.9804 10.7929 22.9702 9.70424C22.9681 8.11934 23.6128 6.5967 24.766 5.46249C25.9193 4.32829 27.4894 3.67274 29.14 3.63626L29.137 3.63528ZM24.9968 8.79345C29.8087 8.81572 32.6897 8.82718 33.6395 8.82784V8.78363C33.3809 7.72211 32.7211 6.79049 31.7879 6.16917C31.095 5.73687 30.2905 5.49419 29.4645 5.48142H29.1011C28.4062 5.5039 27.7272 5.68671 27.1214 6.01438C26.5157 6.34205 26.0011 6.80494 25.6211 7.3639C25.332 7.80351 25.1223 8.28682 25.0009 8.79345H24.9968ZM19.4676 17.6115C18.8935 16.7825 18.1162 16.1015 17.2039 15.6281C16.2917 15.1548 15.2723 14.9037 14.2353 14.8968H14.0306C12.9936 14.9037 11.9743 15.1548 11.062 15.6281C10.1497 16.1015 9.3724 16.7825 8.7983 17.6115C8.10959 18.5781 7.73098 19.7172 7.70926 20.8881V21.2389C7.72941 22.261 8.01592 23.262 8.54263 24.1504C9.06934 25.0389 9.81949 25.7866 10.7246 26.3253C11.0367 26.4946 11.3598 26.6446 11.6918 26.7743C12.3694 27.0711 13.1043 27.2263 13.8484 27.2302H14.4298C15.1739 27.2263 15.9088 27.0711 16.5854 26.7743C16.9178 26.6448 17.2413 26.4948 17.5536 26.3253C18.4585 25.7865 19.2085 25.0388 19.735 24.1503C20.2615 23.2618 20.5479 22.2609 20.5679 21.2389V20.8891C20.5461 19.7178 20.1671 18.5783 19.4779 17.6115H19.4676ZM13.9405 25.2475C13.265 25.2298 12.6018 25.051 12.0163 24.7248C11.7051 24.5283 11.4022 24.3318 11.1463 24.0813L11.1299 24.1108C10.9247 23.921 10.7338 23.7174 10.5588 23.5016C10.0523 22.8319 9.7741 22.0281 9.76247 21.2006V20.9255C9.75224 20.1847 9.9723 19.4586 10.3971 18.8396L10.436 18.8858C10.6284 18.5891 10.8536 18.314 11.1064 18.0634L11.4083 17.8129L11.4902 17.751C11.8965 17.4432 12.3573 17.2082 12.8505 17.0573C13.1012 16.9866 13.3561 16.9355 13.6151 16.9041H13.6458C13.7276 16.8942 13.8095 16.8942 13.8883 16.8903L14.0808 16.8805H14.1586L14.351 16.8903L14.5925 16.9041H14.6232C14.8822 16.9355 15.1371 16.9876 15.3878 17.0573C15.8809 17.2084 16.3416 17.4434 16.7481 17.751L16.83 17.8129L17.137 18.0634C17.3899 18.314 17.615 18.59 17.8075 18.8858L17.8464 18.8396C18.2704 19.4584 18.4914 20.1849 18.4809 20.9255V21.2006C18.4687 22.0283 18.1898 22.8321 17.6826 23.5016C17.5082 23.7174 17.3177 23.9206 17.1125 24.1098L17.0961 24.0803C16.83 24.321 16.5372 24.5372 16.2261 24.7238C15.6397 25.0485 14.9785 25.2281 14.3018 25.2465L13.9405 25.2475Z" fill="white"/>
<path d="M26.6805 25.0461V27.2076L26.4266 27.2175H26.2813C22.2929 27.4382 19.8842 25.9045 19.0551 22.6164L19.0183 21.2212C19.0429 20.5361 19.0551 19.7808 19.0551 18.9555V14.9469C19.0521 14.9273 19.0592 14.9076 19.0736 14.8948C19.0879 14.8821 19.1084 14.8752 19.1278 14.8771H21.0521C21.0725 14.8742 21.093 14.8811 21.1063 14.8948C21.1196 14.9086 21.1268 14.9282 21.1247 14.9469V20.2456L21.2701 22.2666C21.6693 24.1844 23.0613 25.1722 25.4461 25.2298C25.8648 25.2276 26.2808 25.1657 26.6805 25.0461Z" fill="white"/>
<path d="M29.183 14.8948H29.401C30.9906 14.9164 32.5156 15.5001 33.6855 16.5327V14.9607C33.6917 14.9135 33.7163 14.8919 33.7572 14.8919H35.6866C35.7347 14.8978 35.7582 14.9214 35.7582 14.9607V27.1605C35.7613 27.1801 35.7541 27.1998 35.7398 27.2125C35.7255 27.2253 35.705 27.2322 35.6855 27.2302H33.7613C33.7408 27.2332 33.7203 27.2263 33.707 27.2125C33.6937 27.1988 33.6866 27.1791 33.6886 27.1605V25.5885C32.5667 26.606 31.0925 27.1894 29.5494 27.2263H29.0049C27.2578 27.1536 25.6273 26.398 24.4655 25.1336C23.4821 24.0222 22.9302 22.6182 22.9036 21.1603V20.9864C22.9067 19.0145 23.9098 17.1684 25.5914 16.0365C26.6354 15.3065 27.8903 14.9066 29.182 14.8938L29.183 14.8948ZM24.9712 20.9599V21.1691C24.9814 22.6429 25.8309 24.0135 27.1861 24.7258C27.7721 25.0512 28.4336 25.2309 29.1103 25.2485H29.4737C31.7613 25.1729 33.5914 23.4014 33.6497 21.2045V20.9274C33.617 19.3279 32.6262 17.8895 31.1073 17.2332C30.554 17.017 29.9644 16.8988 29.3673 16.8844H29.2588C28.133 16.8979 27.0567 17.3309 26.2573 18.0919C25.4579 18.8529 24.9978 19.8823 24.9742 20.9628L24.9712 20.9599Z" fill="white"/>
<path d="M60.6016 16H62.5352C62.9622 16 63.3229 15.9062 63.6172 15.7188C63.9141 15.5443 64.1458 15.3229 64.3125 15.0547C64.375 14.9531 64.4284 14.8555 64.4727 14.7617C64.5143 14.6654 64.5456 14.556 64.5664 14.4336C64.6107 14.1914 64.6328 13.7643 64.6328 13.1523C64.6328 12.5768 64.6185 12.1719 64.5898 11.9375C64.5534 11.7031 64.4661 11.4792 64.3281 11.2656C63.9427 10.6302 63.3646 10.3099 62.5938 10.3047H60.6016V16ZM61.4648 11.1211H62.4961C62.9336 11.1107 63.2721 11.2708 63.5117 11.6016C63.6289 11.7344 63.7031 11.9076 63.7344 12.1211C63.7578 12.3346 63.7695 12.6888 63.7695 13.1836C63.7695 13.6914 63.7578 14.0378 63.7344 14.2227C63.7083 14.4102 63.6471 14.5651 63.5508 14.6875C63.332 15.0182 62.9805 15.1836 62.4961 15.1836H61.4648V11.1211ZM67.2006 16H70.8373V15.1836H68.0639V13.5117H70.4311V12.7461H68.0639V11.1211H70.8373V10.3047H67.2006V16ZM73.2841 14.6172L72.7177 15.2656C73.3244 15.7865 74.0497 16.0469 74.8934 16.0469C76.1981 16.0312 76.8648 15.4792 76.8934 14.3906C76.8934 13.987 76.7671 13.6328 76.5145 13.3281C76.2593 13.0182 75.8648 12.8268 75.3309 12.7539C75.0601 12.7201 74.8466 12.6901 74.6903 12.6641C74.4091 12.612 74.2046 12.5182 74.077 12.3828C73.9494 12.25 73.8856 12.1016 73.8856 11.9375C73.8908 11.6641 73.9859 11.4583 74.1708 11.3203C74.3479 11.1875 74.5692 11.1211 74.8348 11.1211C75.3479 11.1315 75.8179 11.2773 76.245 11.5586L76.7255 10.8477C76.202 10.4701 75.5861 10.2734 74.8778 10.2578C74.2893 10.263 73.8348 10.4167 73.5145 10.7188C73.1838 11.0234 73.0184 11.4245 73.0184 11.9219C73.0184 12.3359 73.1499 12.6875 73.413 12.9766C73.6682 13.2578 74.0406 13.4388 74.5302 13.5195C74.8036 13.5586 75.0549 13.5938 75.2841 13.625C75.7841 13.7109 76.0315 13.9661 76.0262 14.3906C76.0158 14.9089 75.6408 15.1732 74.9012 15.1836C74.2762 15.1784 73.7372 14.9896 73.2841 14.6172ZM79.3675 16H80.2308V10.3047H79.3675V16ZM84.8377 13.6797H85.9978V13.9766C85.9926 14.3333 85.8806 14.6211 85.6619 14.8398C85.4431 15.069 85.1658 15.1836 84.8298 15.1836C84.6267 15.1836 84.4522 15.1406 84.3064 15.0547C84.158 14.9818 84.0382 14.8867 83.947 14.7695C83.8351 14.6471 83.7608 14.487 83.7244 14.2891C83.6827 14.0911 83.6619 13.7122 83.6619 13.1523C83.6619 12.5924 83.6827 12.2109 83.7244 12.0078C83.7608 11.8151 83.8351 11.6576 83.947 11.5352C84.0382 11.418 84.158 11.3203 84.3064 11.2422C84.4522 11.1667 84.6267 11.1263 84.8298 11.1211C85.1059 11.1263 85.3403 11.2057 85.533 11.3594C85.7179 11.5208 85.8455 11.7161 85.9158 11.9453H86.8298C86.7387 11.4688 86.5199 11.069 86.1736 10.7461C85.8272 10.4258 85.3793 10.263 84.8298 10.2578C84.3819 10.263 84.0082 10.3698 83.7087 10.5781C83.4041 10.7839 83.1827 11.0182 83.0447 11.2812C82.9587 11.4193 82.8949 11.6003 82.8533 11.8242C82.8142 12.0482 82.7947 12.4909 82.7947 13.1523C82.7947 13.8034 82.8142 14.2435 82.8533 14.4727C82.8741 14.5951 82.9002 14.6966 82.9314 14.7773C82.9653 14.8555 83.003 14.9375 83.0447 15.0234C83.1827 15.2865 83.4041 15.5182 83.7087 15.7188C84.0082 15.9271 84.3819 16.0365 84.8298 16.0469C85.4106 16.0365 85.8923 15.8398 86.2752 15.457C86.6554 15.0716 86.8507 14.5938 86.8611 14.0234V12.8633H84.8377V13.6797ZM89.4328 16H90.2961V11.9531H90.3117L92.8859 16H93.7023V10.3047H92.8391V14.3516H92.8234L90.2453 10.3047H89.4328V16ZM100.998 11.5195C100.998 11.3659 101.054 11.2357 101.166 11.1289C101.268 11.0273 101.398 10.9766 101.557 10.9766C101.723 10.9766 101.86 11.0273 101.967 11.1289C102.068 11.2357 102.119 11.3659 102.119 11.5195C102.119 11.6628 102.071 11.7943 101.975 11.9141C101.868 12.0312 101.683 12.1432 101.42 12.25C101.298 12.1328 101.2 12.0091 101.127 11.8789C101.041 11.7565 100.998 11.6367 100.998 11.5195ZM103.053 15.4258L103.58 16H104.541L103.58 14.8555C103.742 14.681 103.886 14.4844 104.014 14.2656C104.141 14.0521 104.246 13.8385 104.326 13.625L103.596 13.3359C103.489 13.6771 103.324 13.9948 103.1 14.2891L101.885 12.8242C102.531 12.5039 102.848 12.0794 102.838 11.5508C102.833 11.194 102.716 10.8906 102.486 10.6406C102.257 10.3906 101.947 10.263 101.557 10.2578C101.169 10.263 100.86 10.3906 100.631 10.6406C100.397 10.8906 100.279 11.194 100.279 11.5508C100.279 11.7435 100.326 11.931 100.42 12.1133C100.501 12.2982 100.61 12.4714 100.748 12.6328C100.029 13.0312 99.6674 13.5859 99.6622 14.2969C99.6674 14.776 99.8354 15.1836 100.166 15.5195C100.486 15.8607 100.919 16.0365 101.463 16.0469C101.765 16.0417 102.048 15.9805 102.311 15.8633C102.576 15.7461 102.824 15.6003 103.053 15.4258ZM101.205 13.1758L102.58 14.8242C102.187 15.1654 101.805 15.3333 101.436 15.3281C101.149 15.3281 100.904 15.2266 100.701 15.0234C100.493 14.8307 100.386 14.5859 100.381 14.2891C100.376 13.8724 100.65 13.5013 101.205 13.1758ZM110.181 16H112.114C112.541 16 112.902 15.9062 113.196 15.7188C113.493 15.5443 113.725 15.3229 113.892 15.0547C113.954 14.9531 114.007 14.8555 114.052 14.7617C114.093 14.6654 114.125 14.556 114.145 14.4336C114.19 14.1914 114.212 13.7643 114.212 13.1523C114.212 12.5768 114.198 12.1719 114.169 11.9375C114.132 11.7031 114.045 11.4792 113.907 11.2656C113.522 10.6302 112.944 10.3099 112.173 10.3047H110.181V16ZM111.044 11.1211H112.075C112.513 11.1107 112.851 11.2708 113.091 11.6016C113.208 11.7344 113.282 11.9076 113.313 12.1211C113.337 12.3346 113.349 12.6888 113.349 13.1836C113.349 13.6914 113.337 14.0378 113.313 14.2227C113.287 14.4102 113.226 14.5651 113.13 14.6875C112.911 15.0182 112.56 15.1836 112.075 15.1836H111.044V11.1211ZM116.78 16H120.416V15.1836H117.643V13.5117H120.01V12.7461H117.643V11.1211H120.416V10.3047H116.78V16ZM124.078 16H124.75L126.633 10.3047H125.719L124.422 14.6406H124.406L123.113 10.3047H122.199L124.078 16ZM128.806 16H132.443V15.1836H129.669V13.5117H132.036V12.7461H129.669V11.1211H132.443V10.3047H128.806V16ZM134.819 16H138.456V15.1836H135.682V10.3047H134.819V16ZM140.637 13.1523C140.637 13.8034 140.656 14.2435 140.695 14.4727C140.716 14.5951 140.742 14.6966 140.774 14.7773C140.807 14.8555 140.845 14.9375 140.887 15.0234C141.025 15.2865 141.246 15.5182 141.551 15.7188C141.85 15.9271 142.224 16.0365 142.672 16.0469C143.125 16.0365 143.503 15.9271 143.805 15.7188C144.104 15.5182 144.32 15.2865 144.453 15.0234C144.55 14.8854 144.616 14.7018 144.652 14.4727C144.686 14.2435 144.703 13.8034 144.703 13.1523C144.703 12.4909 144.686 12.0482 144.652 11.8242C144.616 11.6003 144.55 11.4193 144.453 11.2812C144.32 11.0182 144.104 10.7839 143.805 10.5781C143.503 10.3698 143.125 10.263 142.672 10.2578C142.224 10.263 141.85 10.3698 141.551 10.5781C141.246 10.7839 141.025 11.0182 140.887 11.2812C140.801 11.4193 140.737 11.6003 140.695 11.8242C140.656 12.0482 140.637 12.4909 140.637 13.1523ZM141.504 13.1523C141.504 12.5924 141.525 12.2109 141.567 12.0078C141.603 11.8151 141.677 11.6576 141.789 11.5352C141.88 11.418 142 11.3203 142.149 11.2422C142.294 11.1667 142.469 11.1263 142.672 11.1211C142.878 11.1263 143.056 11.1667 143.207 11.2422C143.35 11.3203 143.465 11.418 143.551 11.5352C143.663 11.6576 143.74 11.8151 143.781 12.0078C143.82 12.2109 143.84 12.5924 143.84 13.1523C143.84 13.7122 143.82 14.0911 143.781 14.2891C143.74 14.487 143.663 14.6471 143.551 14.7695C143.465 14.8867 143.35 14.9818 143.207 15.0547C143.056 15.1406 142.878 15.1836 142.672 15.1836C142.469 15.1836 142.294 15.1406 142.149 15.0547C142 14.9818 141.88 14.8867 141.789 14.7695C141.677 14.6471 141.603 14.487 141.567 14.2891C141.525 14.0911 141.504 13.7122 141.504 13.1523ZM148.138 11.1211H149.384C149.619 11.1159 149.824 11.1693 150.002 11.2812C150.119 11.349 150.21 11.4414 150.275 11.5586C150.338 11.6888 150.369 11.849 150.369 12.0391C150.369 12.2682 150.292 12.4766 150.138 12.6641C149.977 12.8568 149.736 12.9557 149.416 12.9609H148.138V11.1211ZM147.275 16H148.138V13.7773H149.451C150.037 13.7669 150.482 13.5794 150.787 13.2148C151.084 12.8685 151.232 12.4844 151.232 12.0625C151.232 11.75 151.173 11.4792 151.056 11.25C150.944 11.013 150.798 10.8307 150.619 10.7031C150.405 10.5339 150.194 10.4219 149.986 10.3672C149.778 10.3255 149.561 10.3047 149.338 10.3047H147.275V16ZM153.577 16H154.44V12.4492H154.456L155.647 15.1836H156.366L157.558 12.4492H157.577V16H158.44V10.3047H157.624L156.022 14.0156L154.39 10.3047H153.577V16ZM161.2 16H164.836V15.1836H162.063V13.5117H164.43V12.7461H162.063V11.1211H164.836V10.3047H161.2V16ZM167.213 16H168.076V11.9531H168.092L170.666 16H171.482V10.3047H170.619V14.3516H170.603L168.025 10.3047H167.213V16ZM175.214 16H176.081V11.0742H177.64V10.3047H173.656V11.0742H175.214V16Z" fill="white"/>
</svg>
