<svg width="112" height="19" viewBox="0 0 112 19" fill="none" xmlns="http://www.w3.org/2000/svg">
<path d="M32.808 6.872H33.648L31.905 2H30.981L29.238 6.872H30.071L30.421 5.878H32.458L32.808 6.872ZM32.234 5.227H30.645L31.443 2.966L32.234 5.227Z" fill="white"/>
<path d="M37.9409 2.007V6.872H40.3839V6.228H38.7389V2.007H37.9409Z" fill="white"/>
<path d="M47.2742 2H44.5862V6.872H47.2742V6.221H45.3842V4.73H47.0642V4.079H45.3842V2.651H47.2742V2Z" fill="white"/>
<path d="M54.6411 6.872H55.5371L54.0251 4.443L55.5441 2.007H54.6551L53.6191 3.785L52.5131 2.007H51.6171L53.1361 4.443L51.6241 6.872H52.5131L53.5421 5.108L54.6411 6.872Z" fill="white"/>
<path d="M62.7972 6.872H63.6932L62.1812 4.443L63.7002 2.007H62.8112L61.7752 3.785L60.6692 2.007H59.7732L61.2922 4.443L59.7802 6.872H60.6692L61.6982 5.108L62.7972 6.872Z" fill="white"/>
<path d="M71.3873 6.872H72.2273L70.4843 2H69.5603L67.8173 6.872H68.6503L69.0003 5.878H71.0373L71.3873 6.872ZM70.8133 5.227H69.2243L70.0223 2.966L70.8133 5.227Z" fill="white"/>
<path d="M79.7192 2V5.626L77.3182 2H76.5202V6.872H77.3182V3.239L79.7192 6.872H80.5172V2H79.7192Z" fill="white"/>
<path d="M86.6891 2.007H85.1001V6.872H86.6891C88.2501 6.872 89.2721 5.955 89.2721 4.457C89.2721 2.952 88.2501 2.007 86.6891 2.007ZM85.8981 6.221V2.658H86.6891C87.8371 2.658 88.4531 3.344 88.4531 4.457C88.4531 5.563 87.8371 6.221 86.6891 6.221H85.8981Z" fill="white"/>
<path d="M96.181 3.463C96.181 3.946 95.901 4.289 95.278 4.289H94.396V2.658H95.278C95.901 2.658 96.181 2.973 96.181 3.463ZM93.598 2.007V6.872H94.396V4.926H95.005L96.125 6.872H97.077L95.873 4.856C96.692 4.653 97 4.037 97 3.463C97 2.672 96.433 2.007 95.278 2.007H93.598Z" fill="white"/>
<path d="M101.556 6.872H102.354V2.007H101.556V6.872Z" fill="white"/>
<path d="M110.22 6.872H111.06L109.317 2H108.393L106.65 6.872H107.483L107.833 5.878H109.87L110.22 6.872ZM109.646 5.227H108.057L108.855 2.966L109.646 5.227Z" fill="white"/>
<path d="M29.525 15.872H30.323V13.744H31.933V13.093H30.323V11.658H32.388V11.007H29.525V15.872Z" fill="white"/>
<path d="M41.3666 13.429C41.3666 11.973 40.2676 10.944 38.8816 10.944C37.5096 10.944 36.3966 11.973 36.3966 13.429C36.3966 14.892 37.5096 15.921 38.8816 15.921C40.2676 15.921 41.3666 14.892 41.3666 13.429ZM37.2156 13.429C37.2156 12.33 37.9156 11.644 38.8816 11.644C39.8476 11.644 40.5476 12.33 40.5476 13.429C40.5476 14.528 39.8476 15.228 38.8816 15.228C37.9156 15.228 37.2156 14.528 37.2156 13.429Z" fill="white"/>
<path d="M48.2698 12.463C48.2698 12.946 47.9898 13.289 47.3668 13.289H46.4848V11.658H47.3668C47.9898 11.658 48.2698 11.973 48.2698 12.463ZM45.6868 11.007V15.872H46.4848V13.926H47.0938L48.2138 15.872H49.1658L47.9618 13.856C48.7808 13.653 49.0888 13.037 49.0888 12.463C49.0888 11.672 48.5218 11.007 47.3668 11.007H45.6868Z" fill="white"/>
<path d="M56.9277 14.493C56.9277 12.715 54.3517 13.401 54.3517 12.302C54.3517 11.833 54.7087 11.609 55.1707 11.623C55.6747 11.637 55.9617 11.938 55.9897 12.267H56.8717C56.8017 11.434 56.1437 10.944 55.2127 10.944C54.2187 10.944 53.5397 11.476 53.5397 12.33C53.5397 14.122 56.1227 13.359 56.1227 14.535C56.1227 14.948 55.8077 15.249 55.2477 15.249C54.6947 15.249 54.4147 14.927 54.3797 14.528H53.5257C53.5257 15.389 54.2747 15.921 55.2477 15.921C56.3327 15.921 56.9277 15.221 56.9277 14.493Z" fill="white"/>
<path d="M61.9573 13.429C61.9573 12.33 62.6573 11.644 63.6233 11.644C64.5893 11.644 65.2893 12.33 65.2893 13.429C65.2893 14.528 64.5893 15.228 63.6233 15.228C62.6573 15.228 61.9573 14.528 61.9573 13.429ZM66.1083 13.429C66.1083 11.973 65.0093 10.944 63.6233 10.944C62.2513 10.944 61.1383 11.973 61.1383 13.429C61.1383 14.892 62.2513 15.921 63.6233 15.921C63.8683 15.921 64.0993 15.893 64.3163 15.83L65.1703 16.754H66.1853L65.0163 15.515C65.6813 15.088 66.1083 14.346 66.1083 13.429Z" fill="white"/>
<path d="M70.4421 14.094C70.4421 15.333 71.3101 15.921 72.3321 15.921C73.3471 15.921 74.2431 15.333 74.2431 14.094V11.007H73.4451V14.108C73.4451 14.864 73.0181 15.221 72.3391 15.221C71.6671 15.221 71.2401 14.864 71.2401 14.108V11.007H70.4421V14.094Z" fill="white"/>
<path d="M81.5051 11H78.8171V15.872H81.5051V15.221H79.6151V13.73H81.2951V13.079H79.6151V11.651H81.5051V11Z" fill="white"/>
<g clip-path="url(#clip0)">
<path d="M0 18.8395C0.923533 18.8395 1.69314 18.8395 2.62043 18.8395C2.62043 16.1167 2.62043 13.539 2.62043 10.9315C3.56273 10.9315 4.34361 10.9315 5.32345 10.9315C5.32345 13.6097 5.32345 16.1837 5.32345 18.8767C6.29955 18.8767 7.08417 18.8767 7.98893 18.8767C7.98893 12.4715 7.98893 6.25591 7.98893 -0.00427246C5.25212 -0.000552806 2.65797 -0.000552806 0 -0.000552806C0 6.3675 0 12.6277 0 18.8395ZM2.72555 2.77803C3.54021 2.77803 4.32108 2.77803 5.21083 2.77803C5.21083 4.48163 5.21083 6.12944 5.21083 7.92231C4.42995 7.92231 3.65659 7.92231 2.72555 7.92231C2.72555 6.27451 2.72555 4.58578 2.72555 2.77803Z" fill="white"/>
<path d="M18.9662 8.12375C17.2468 8.12375 15.64 8.12375 13.7254 8.12375C13.7254 6.2416 13.7254 4.54916 13.7254 2.78604C14.6376 2.78604 15.5424 2.78604 16.3833 2.78604C16.4622 3.67504 16.3984 4.44873 16.4734 5.29681C17.3407 5.29681 18.1178 5.29681 18.9737 5.29681C18.9737 3.49278 18.9737 1.79289 18.9737 0.0372162C16.2182 0.0372162 13.5752 0.0372162 10.9323 0.0372162C10.9323 6.40527 10.9323 12.6283 10.9323 19C11.8933 18.9554 12.723 18.9182 13.7441 18.8698C13.7441 16.0726 13.7441 13.5024 13.7441 10.7498C15.6062 10.7498 17.2656 10.7498 18.97 10.7498C18.9662 9.78643 18.9662 9.01646 18.9662 8.12375Z" fill="white"/>
<path d="M16.5034 13.7032C16.5034 15.5296 16.5034 17.2109 16.5034 18.8475C17.427 18.8475 18.1891 18.8475 19 18.8475C19 17.0583 19 15.4254 19 13.7032C18.0201 13.7032 17.2505 13.7032 16.5034 13.7032Z" fill="white"/>
</g>
<defs>
<clipPath id="clip0">
<rect width="19" height="19" fill="white"/>
</clipPath>
</defs>
</svg>
